[ConversionWorker] Logging FFmpeg output to: ffmpeg_logs\ffmpeg_conversion_高冷_04_wav_20250525_173712.log\n[ConversionWorker] Getting duration with command: ffprobe -v error -show_entries format=duration -of default=noprint_wrappers=1:nokey=1 Z:\Story\高冷\高冷 04.wav\n[ConversionWorker] Duration for 高冷 04.wav: 2098244 ms\n[ConversionWorker] Starting FFmpeg for 高冷 04.wav: ffmpeg -i Z:\Story\高冷\高冷 04.wav -b:a 128k -vn -y -loglevel error -stats -progress pipe:1 Z:\Story\高冷\高冷 04.mp3\n[ConversionWorker] FFmpeg process started. PID: 2612\n[STDOUT RAW] bitrate= 124.0kbits/s\n[STDOUT RAW] total_size=83756\n[STDOUT RAW] out_time_us=5401958\n[STDOUT RAW] out_time_ms=5401958\n[STDOUT RAW] out_time=00:00:05.401958\n[STDOUT RAW] dup_frames=0\n[STDOUT RAW] drop_frames=0\n[STDOUT RAW] speed=10.5x\n[STDOUT RAW] progress=continue\n[STDERR RAW] size=      82KiB time=00:00:05.40 bitrate= 124.0kbits/s speed=10.5x\n[STDOUT RAW] bitrate= 125.9kbits/s\n[STDOUT RAW] total_size=158252\n[STDOUT RAW] out_time_us=10057958\n[STDOUT RAW] out_time_ms=10057958\n[STDOUT RAW] out_time=00:00:10.057958\n[STDOUT RAW] dup_frames=0\n[STDOUT RAW] drop_frames=0\n[STDOUT RAW] speed=9.88x\n[STDOUT RAW] progress=continue\n[STDOUT RAW] bitrate= 126.6kbits/s\n[STDERR RAW] size=     155KiB time=00:00:10.05 bitrate= 125.9kbits/s speed=9.88x\n[STDOUT RAW] total_size=235820\n[STDOUT RAW] out_time_us=14905958\n[STDOUT RAW] out_time_ms=14905958\n[STDOUT RAW] out_time=00:00:14.905958\n[STDOUT RAW] dup_frames=0\n[STDOUT RAW] drop_frames=0\n[STDOUT RAW] speed=9.66x\n[STDOUT RAW] progress=continue\n[STDERR RAW] size=     230KiB time=00:00:14.90 bitrate= 126.6kbits/s speed=9.66x\n[STDOUT RAW] bitrate= 126.1kbits/s\n[STDOUT RAW] total_size=1572864\n[STDOUT RAW] out_time_us=99745958\n[STDOUT RAW] out_time_ms=99745958\n[STDOUT RAW] out_time=00:01:39.745958\n[STDOUT RAW] dup_frames=0\n[STDOUT RAW] drop_frames=0\n[STDOUT RAW] speed=48.6x\n[STDOUT RAW] progress=continue\n[STDERR RAW] size=    1536KiB time=00:01:39.74 bitrate= 126.1kbits/s speed=48.6x\n[STDOUT RAW] bitrate= 124.4kbits/s\n[STDOUT RAW] total_size=3670016\n[STDOUT RAW] out_time_us=236017958\n[STDOUT RAW] out_time_ms=236017958\n[STDOUT RAW] out_time=00:03:56.017958\n[STDOUT RAW] dup_frames=0\n[STDOUT RAW] drop_frames=0\n[STDOUT RAW] speed=91.7x\n[STDOUT RAW] progress=continue\n[STDERR RAW] size=    3584KiB time=00:03:56.01 bitrate= 124.4kbits/s speed=91.7x\n[STDOUT RAW] bitrate= 126.4kbits/s\n[STDOUT RAW] total_size=5767168\n[STDOUT RAW] out_time_us=365113958\n[STDOUT RAW] out_time_ms=365113958\n[STDOUT RAW] out_time=00:06:05.113958\n[STDOUT RAW] dup_frames=0\n[STDOUT RAW] drop_frames=0\n[STDOUT RAW] speed= 119x\n[STDOUT RAW] progress=continue\n[STDERR RAW] size=    5632KiB time=00:06:05.11 bitrate= 126.4kbits/s speed= 119x\n[STDOUT RAW] bitrate= 125.9kbits/s\n[STDOUT RAW] total_size=7864320\n[STDOUT RAW] out_time_us=499657958\n[STDOUT RAW] out_time_ms=499657958\n[STDOUT RAW] out_time=00:08:19.657958\n[STDOUT RAW] dup_frames=0\n[STDOUT RAW] drop_frames=0\n[STDOUT RAW] speed= 139x\n[STDOUT RAW] progress=continue\n[STDERR RAW] size=    7680KiB time=00:08:19.65 bitrate= 125.9kbits/s speed= 139x\n[STDOUT RAW] bitrate= 124.6kbits/s\n[STDOUT RAW] total_size=9699328\n[STDOUT RAW] out_time_us=622729958\n[STDOUT RAW] out_time_ms=622729958\n[STDOUT RAW] out_time=00:10:22.729958\n[STDOUT RAW] dup_frames=0\n[STDOUT RAW] drop_frames=0\n[STDOUT RAW] speed= 151x\n[STDOUT RAW] progress=continue\n[STDERR RAW] size=    9472KiB time=00:10:22.72 bitrate= 124.6kbits/s speed= 151x\n[STDOUT RAW] bitrate= 125.7kbits/s\n[STDOUT RAW] total_size=11796480\n[STDOUT RAW] out_time_us=750745958\n[STDOUT RAW] out_time_ms=750745958\n[STDOUT RAW] out_time=00:12:30.745958\n[STDOUT RAW] dup_frames=0\n[STDOUT RAW] drop_frames=0\n[STDOUT RAW] speed= 162x\n[STDOUT RAW] progress=continue\n[STDERR RAW] size=   11520KiB time=00:12:30.74 bitrate= 125.7kbits/s speed= 162x\n[STDOUT RAW] bitrate= 126.9kbits/s\n[STDOUT RAW] total_size=13893632\n[STDOUT RAW] out_time_us=876001958\n[STDOUT RAW] out_time_ms=876001958\n[STDOUT RAW] out_time=00:14:36.001958\n[STDOUT RAW] dup_frames=0\n[STDOUT RAW] drop_frames=0\n[STDOUT RAW] speed= 170x\n[STDOUT RAW] progress=continue\n[STDERR RAW] size=   13568KiB time=00:14:36.00 bitrate= 126.9kbits/s speed= 170x\n[STDOUT RAW] bitrate= 127.9kbits/s\n[STDOUT RAW] total_size=15990784\n[STDOUT RAW] out_time_us=1000057958\n[STDOUT RAW] out_time_ms=1000057958\n[STDOUT RAW] out_time=00:16:40.057958\n[STDOUT RAW] dup_frames=0\n[STDOUT RAW] drop_frames=0\n[STDOUT RAW] speed= 177x\n[STDOUT RAW] progress=continue\n[STDERR RAW] size=   15616KiB time=00:16:40.05 bitrate= 127.9kbits/s speed= 177x\n[STDOUT RAW] bitrate= 126.1kbits/s\n[STDOUT RAW] total_size=17825792\n[STDOUT RAW] out_time_us=1130617958\n[STDOUT RAW] out_time_ms=1130617958\n[STDOUT RAW] out_time=00:18:50.617958\n[STDOUT RAW] dup_frames=0\n[STDOUT RAW] drop_frames=0\n[STDOUT RAW] speed= 183x\n[STDOUT RAW] progress=continue\n[STDERR RAW] size=   17408KiB time=00:18:50.61 bitrate= 126.1kbits/s speed= 183x\n[STDOUT RAW] bitrate= 126.3kbits/s\n[STDOUT RAW] total_size=19660800\n[STDOUT RAW] out_time_us=1245289958\n[STDOUT RAW] out_time_ms=1245289958\n[STDOUT RAW] out_time=00:20:45.289958\n[STDOUT RAW] dup_frames=0\n[STDOUT RAW] drop_frames=0\n[STDOUT RAW] speed= 186x\n[STDOUT RAW] progress=continue\n[STDERR RAW] size=   19200KiB time=00:20:45.28 bitrate= 126.3kbits/s speed= 186x\n[STDOUT RAW] bitrate= 126.5kbits/s\n[STDOUT RAW] total_size=21495808\n[STDOUT RAW] out_time_us=1359169958\n[STDOUT RAW] out_time_ms=1359169958\n[STDOUT RAW] out_time=00:22:39.169958\n[STDOUT RAW] dup_frames=0\n[STDOUT RAW] drop_frames=0\n[STDOUT RAW] speed= 189x\n[STDOUT RAW] progress=continue\n[STDOUT RAW] bitrate= 126.6kbits/s\n[STDERR RAW] size=   20992KiB time=00:22:39.16 bitrate= 126.5kbits/s speed= 189x\n[STDOUT RAW] total_size=23592960\n[STDOUT RAW] out_time_us=1490305958\n[STDOUT RAW] out_time_ms=1490305958\n[STDOUT RAW] out_time=00:24:50.305958\n[STDOUT RAW] dup_frames=0\n[STDOUT RAW] drop_frames=0\n[STDOUT RAW] speed= 193x\n[STDOUT RAW] progress=continue\n[STDERR RAW] size=   23040KiB time=00:24:50.30 bitrate= 126.6kbits/s speed= 193x\n[STDOUT RAW] bitrate= 127.8kbits/s\n[STDOUT RAW] total_size=25690112\n[STDOUT RAW] out_time_us=1607977958\n[STDOUT RAW] out_time_ms=1607977958\n[STDOUT RAW] out_time=00:26:47.977958\n[STDOUT RAW] dup_frames=0\n[STDOUT RAW] drop_frames=0\n[STDOUT RAW] speed= 195x\n[STDOUT RAW] progress=continue\n[STDERR RAW] size=   25088KiB time=00:26:47.97 bitrate= 127.8kbits/s speed= 195x\n[STDOUT RAW] bitrate= 127.6kbits/s\n[STDOUT RAW] total_size=27525120\n[STDOUT RAW] out_time_us=1725817958\n[STDOUT RAW] out_time_ms=1725817958\n[STDOUT RAW] out_time=00:28:45.817958\n[STDOUT RAW] dup_frames=0\n[STDOUT RAW] drop_frames=0\n[STDOUT RAW] speed= 197x\n[STDOUT RAW] progress=continue\n[STDERR RAW] size=   26880KiB time=00:28:45.81 bitrate= 127.6kbits/s speed= 197x\n[STDOUT RAW] bitrate= 127.6kbits/s\n[STDOUT RAW] total_size=29360128\n[STDOUT RAW] out_time_us=1840177958\n[STDOUT RAW] out_time_ms=1840177958\n[STDOUT RAW] out_time=00:30:40.177958\n[STDOUT RAW] dup_frames=0\n[STDOUT RAW] drop_frames=0\n[STDOUT RAW] speed= 198x\n[STDOUT RAW] progress=continue\n[STDERR RAW] size=   28672KiB time=00:30:40.17 bitrate= 127.6kbits/s speed= 198x\n[STDOUT RAW] bitrate= 126.9kbits/s\n[STDOUT RAW] total_size=30932992\n[STDOUT RAW] out_time_us=1949833958\n[STDOUT RAW] out_time_ms=1949833958\n[STDOUT RAW] out_time=00:32:29.833958\n[STDOUT RAW] dup_frames=0\n[STDOUT RAW] drop_frames=0\n[STDOUT RAW] speed= 199x\n[STDOUT RAW] progress=continue\n[STDERR RAW] size=   30208KiB time=00:32:29.83 bitrate= 126.9kbits/s speed= 199x\n[STDOUT RAW] bitrate= 127.1kbits/s\n[STDOUT RAW] total_size=33030144\n[STDOUT RAW] out_time_us=2079289958\n[STDOUT RAW] out_time_ms=2079289958\n[STDOUT RAW] out_time=00:34:39.289958\n[STDOUT RAW] dup_frames=0\n[STDOUT RAW] drop_frames=0\n[STDOUT RAW] speed= 202x\n[STDOUT RAW] progress=continue\n[STDERR RAW] size=   32256KiB time=00:34:39.28 bitrate= 127.1kbits/s speed= 202x\n[STDOUT RAW] bitrate= 128.0kbits/s\n[STDERR RAW] size=   32786KiB time=00:34:58.24 bitrate= 128.0kbits/s speed= 202x\n[STDOUT RAW] total_size=33573164\n[STDOUT RAW] out_time_us=2098244667\n[STDOUT RAW] out_time_ms=2098244667\n[STDOUT RAW] out_time=00:34:58.244667\n[STDOUT RAW] dup_frames=0\n[STDOUT RAW] drop_frames=0\n[STDOUT RAW] speed= 202x\n[STDOUT RAW] progress=end\n[ConversionWorker] STDERR pipe closed signal received.\n[ConversionWorker] Detected 'progress=end' for 高冷 04.wav\n[ConversionWorker] STDOUT pipe closed signal received.\n[ConversionWorker] Process finished and both stream pipes closed. Exiting loop.\n[ConversionWorker] Waiting for reader threads to join...\n[ConversionWorker] FFmpeg process ended. Return code: 0\n[ConversionWorker] Closing FFmpeg log file.\n